<?xml version="1.0" encoding="utf-8"?>
<!-- Generator: Adobe Illustrator 23.0.3, SVG Export Plug-In . SVG Version: 6.00 Build 0)  -->
<svg version="1.1" id="Layer_1" xmlns="http://www.w3.org/2000/svg" xmlns:xlink="http://www.w3.org/1999/xlink" x="0px" y="0px"
	 viewBox="0 0 453.3 73.9" style="enable-background:new 0 0 453.3 73.9;" xml:space="preserve">
<style type="text/css">
	.st0{fill:#003059;}
</style>
<g>
	<g>
		<path class="st0" d="M100.2,32.9c-0.9-1.1-2-2-3.2-2.7c-1.3-0.7-2.9-1.1-4.7-1.1c-1.7,0-3.3,0.4-4.6,1.1c-1.3,0.7-1.9,1.8-1.9,3.2
			c0,1.1,0.4,2.1,1.1,2.8c0.7,0.7,1.6,1.3,2.6,1.7c1,0.4,2.1,0.8,3.2,1c1.1,0.2,2.1,0.4,3,0.6c1.6,0.4,3.1,0.8,4.5,1.4
			c1.4,0.5,2.6,1.3,3.6,2.1c1,0.9,1.8,1.9,2.4,3.2c0.6,1.3,0.9,2.8,0.9,4.6c0,2.2-0.5,4.1-1.4,5.6c-0.9,1.6-2.1,2.8-3.6,3.8
			s-3.2,1.7-5,2.1c-1.9,0.4-3.8,0.7-5.7,0.7c-3.2,0-6.1-0.5-8.5-1.5s-4.6-2.8-6.5-5.4l5.6-4.6c1.2,1.2,2.5,2.3,4,3.2
			c1.5,0.9,3.3,1.4,5.4,1.4c0.9,0,1.9-0.1,2.8-0.3c1-0.2,1.8-0.5,2.5-0.9s1.3-0.9,1.8-1.6c0.5-0.6,0.7-1.4,0.7-2.2
			c0-1.1-0.3-2-1-2.7s-1.5-1.3-2.5-1.7c-1-0.4-2-0.7-3-1c-1.1-0.2-2-0.5-2.8-0.6c-1.6-0.4-3.1-0.8-4.5-1.3s-2.7-1.1-3.8-2
			c-1.1-0.8-2-1.9-2.6-3.1c-0.7-1.3-1-2.8-1-4.7c0-2,0.4-3.8,1.3-5.3c0.8-1.5,2-2.7,3.4-3.7s3-1.7,4.8-2.2s3.6-0.7,5.4-0.7
			c2.6,0,5.1,0.5,7.5,1.5s4.3,2.6,5.7,4.9L100.2,32.9z"/>
		<path class="st0" d="M110.4,23.1h6.9v6.1h0.2c0.2-0.5,0.6-1.2,1.3-2s1.6-1.6,2.6-2.3c1.1-0.7,2.3-1.4,3.8-1.9
			c1.4-0.5,3-0.8,4.8-0.8c2.9,0,5.3,0.6,7.3,1.8s3.6,3,4.8,5.4c1.3-2.4,3-4.2,5.3-5.4c2.3-1.2,4.6-1.8,7-1.8c3,0,5.5,0.5,7.4,1.5
			s3.4,2.3,4.5,3.9c1.1,1.6,1.8,3.4,2.3,5.5c0.4,2.1,0.6,4.2,0.6,6.4v22.6h-7.4V40.5c0-1.5-0.1-2.9-0.3-4.3
			c-0.2-1.4-0.6-2.6-1.2-3.6s-1.4-1.9-2.5-2.5s-2.5-0.9-4.3-0.9c-3.6,0-6.1,1.1-7.6,3.3s-2.3,5-2.3,8.4v21.2h-7.4V41.8
			c0-1.9-0.1-3.6-0.3-5.1c-0.2-1.5-0.6-2.9-1.1-4c-0.6-1.1-1.4-2-2.5-2.6s-2.5-0.9-4.3-0.9c-1.3,0-2.6,0.3-3.8,0.8s-2.3,1.3-3.2,2.3
			s-1.7,2.4-2.2,4S118,39.8,118,42v20.2h-7.4L110.4,23.1z"/>
		<path class="st0" d="M174.6,27.9c2.1-1.9,4.5-3.3,7.2-4.3c2.7-1,5.5-1.4,8.2-1.4c2.8,0,5.3,0.4,7.3,1.1c2,0.7,3.7,1.7,5,2.9
			c1.3,1.2,2.3,2.6,2.9,4.1c0.6,1.6,0.9,3.2,0.9,4.9V55c0,1.4,0,2.6,0.1,3.8c0.1,1.1,0.1,2.2,0.2,3.3h-6.6c-0.2-2-0.2-3.9-0.2-5.9
			h-0.2c-1.6,2.5-3.6,4.3-5.8,5.3c-2.2,1-4.8,1.6-7.8,1.6c-1.8,0-3.5-0.2-5.2-0.7c-1.6-0.5-3.1-1.2-4.3-2.2c-1.2-1-2.2-2.2-2.9-3.6
			c-0.7-1.4-1.1-3.1-1.1-5c0-2.5,0.6-4.6,1.7-6.3c1.1-1.7,2.7-3.1,4.6-4.1c1.9-1.1,4.2-1.8,6.8-2.3s5.4-0.7,8.3-0.7h5.4v-1.6
			c0-1-0.2-2-0.6-3c-0.4-1-1-1.9-1.7-2.7c-0.8-0.8-1.7-1.4-2.9-1.9c-1.1-0.5-2.5-0.7-4.1-0.7c-1.4,0-2.7,0.1-3.7,0.4
			c-1.1,0.3-2,0.6-2.9,1s-1.7,0.9-2.4,1.4c-0.7,0.5-1.4,1.1-2,1.6L174.6,27.9z M195.4,43.3c-1.7,0-3.5,0.1-5.4,0.3
			c-1.8,0.2-3.5,0.6-5,1.1s-2.7,1.3-3.7,2.3s-1.4,2.2-1.4,3.8c0,2.2,0.8,3.9,2.3,4.8c1.5,1,3.5,1.5,6.1,1.5c2,0,3.7-0.3,5.2-1
			c1.4-0.7,2.6-1.6,3.4-2.7c0.9-1.1,1.5-2.3,1.9-3.6c0.4-1.3,0.6-2.7,0.6-4v-2.5L195.4,43.3L195.4,43.3z"/>
		<path class="st0" d="M294,32.9c-0.9-1.1-2-2-3.2-2.7c-1.3-0.7-2.9-1.1-4.7-1.1c-1.8,0-3.3,0.4-4.6,1.1s-1.9,1.8-1.9,3.2
			c0,1.1,0.4,2.1,1.1,2.8c0.7,0.7,1.6,1.3,2.6,1.7c1,0.4,2.1,0.8,3.2,1s2.1,0.4,3,0.6c1.6,0.4,3.1,0.8,4.5,1.4
			c1.4,0.5,2.6,1.3,3.6,2.1c1,0.9,1.8,1.9,2.4,3.2c0.6,1.3,0.9,2.8,0.9,4.6c0,2.2-0.5,4.1-1.4,5.6c-0.9,1.6-2.1,2.8-3.6,3.8
			s-3.2,1.7-5,2.1c-1.9,0.4-3.8,0.7-5.7,0.7c-3.2,0-6.1-0.5-8.5-1.5s-4.6-2.8-6.5-5.4l5.6-4.6c1.2,1.2,2.5,2.3,4,3.2
			c1.5,0.9,3.3,1.4,5.4,1.4c0.9,0,1.9-0.1,2.8-0.3c1-0.2,1.8-0.5,2.5-0.9s1.3-0.9,1.8-1.6c0.5-0.6,0.7-1.4,0.7-2.2
			c0-1.1-0.3-2-1-2.7s-1.5-1.3-2.5-1.7c-1-0.4-2-0.7-3-1c-1.1-0.2-2-0.5-2.8-0.6c-1.6-0.4-3.1-0.8-4.5-1.3s-2.7-1.1-3.8-2
			c-1.1-0.8-2-1.9-2.6-3.1c-0.7-1.3-1-2.8-1-4.7c0-2,0.4-3.8,1.3-5.3c0.8-1.5,2-2.7,3.4-3.7s3-1.7,4.8-2.2s3.6-0.7,5.4-0.7
			c2.6,0,5.1,0.5,7.5,1.5s4.3,2.6,5.7,4.9L294,32.9z"/>
		<path class="st0" d="M304.5,0h7.4v29.1h0.2c0.9-2.1,2.5-3.8,4.8-5c2.3-1.3,4.9-1.9,8-1.9c1.9,0,3.6,0.3,5.4,0.9
			c1.7,0.6,3.2,1.5,4.5,2.7s2.3,2.7,3.1,4.6c0.8,1.9,1.1,4.1,1.1,6.7v25h-7.4v-23c0-1.8-0.2-3.3-0.7-4.6c-0.5-1.3-1.1-2.3-2-3.1
			c-0.8-0.8-1.8-1.4-2.8-1.7c-1.1-0.4-2.2-0.5-3.3-0.5c-1.5,0-3,0.2-4.3,0.7s-2.5,1.3-3.4,2.3c-1,1.1-1.8,2.4-2.3,4.1
			c-0.5,1.6-0.8,3.6-0.8,5.8v20h-7.4L304.5,0z"/>
		<path class="st0" d="M350.6,45.3c0,1.7,0.4,3.2,1.1,4.6s1.7,2.6,2.9,3.6c1.2,1,2.6,1.8,4.2,2.3s3.2,0.8,4.9,0.8
			c2.3,0,4.3-0.5,6-1.6s3.3-2.5,4.7-4.2l5.6,4.3c-4.1,5.3-9.8,8-17.2,8c-3.1,0-5.8-0.5-8.3-1.6c-2.5-1-4.6-2.5-6.3-4.3
			c-1.7-1.8-3-4-4-6.5c-0.9-2.5-1.4-5.2-1.4-8.1s0.5-5.6,1.5-8.1s2.4-4.6,4.2-6.5c1.8-1.8,3.9-3.3,6.4-4.3s5.1-1.6,8-1.6
			c3.4,0,6.4,0.6,8.7,1.8c2.4,1.2,4.3,2.8,5.9,4.7c1.5,1.9,2.6,4.1,3.3,6.6c0.7,2.4,1,4.9,1,7.4v2.6L350.6,45.3z M373.8,39.4
			c-0.1-1.6-0.3-3.1-0.8-4.5s-1.2-2.6-2.1-3.6s-2.1-1.8-3.5-2.4c-1.4-0.6-3-0.9-4.9-0.9c-1.8,0-3.5,0.3-5,1s-2.8,1.6-3.8,2.7
			c-1,1.1-1.8,2.3-2.4,3.6s-0.9,2.7-0.9,4L373.8,39.4z"/>
		<path class="st0" d="M393.7,45.3c0,1.7,0.4,3.2,1.1,4.6s1.7,2.6,2.9,3.6c1.2,1,2.6,1.8,4.2,2.3s3.2,0.8,4.9,0.8
			c2.3,0,4.3-0.5,6-1.6s3.3-2.5,4.7-4.2l5.6,4.3c-4.1,5.3-9.8,8-17.2,8c-3.1,0-5.8-0.5-8.3-1.6c-2.5-1-4.6-2.5-6.3-4.3
			c-1.7-1.8-3-4-4-6.5c-0.9-2.5-1.4-5.2-1.4-8.1s0.5-5.6,1.5-8.1s2.4-4.6,4.2-6.5c1.8-1.8,3.9-3.3,6.4-4.3s5.1-1.6,8-1.6
			c3.4,0,6.4,0.6,8.7,1.8c2.4,1.2,4.3,2.8,5.9,4.7c1.5,1.9,2.6,4.1,3.3,6.6c0.7,2.4,1,4.9,1,7.4v2.6L393.7,45.3z M417,39.4
			c-0.1-1.6-0.3-3.1-0.8-4.5s-1.2-2.6-2.1-3.6s-2.1-1.8-3.5-2.4c-1.4-0.6-3-0.9-4.9-0.9c-1.8,0-3.5,0.3-5,1s-2.8,1.6-3.8,2.7
			c-1,1.1-1.8,2.3-2.4,3.6s-0.9,2.7-0.9,4L417,39.4z"/>
		<g>
			<path class="st0" d="M235,23.2c0,0-4.4-0.6-6.7-0.4c-2.8,0.2-3.8,0.6-5.3,1.4c-1,0.6-1.9,1.3-2.7,2.2c-0.8,0.8-1.5,1.8-2,2.8
				h-0.2v-6h-7.4v38.9h7.4c0,0-0.2-16,0-19.9s0.9-8,2.9-9.9c2.1-1.9,3.1-2.3,5.6-2.7c2.4-0.3,5.5,0,5.5,0L235,23.2z"/>
		</g>
		<g>
			<path class="st0" d="M262.2,55.8c-0.9,0.2-1.8,0.2-2.7,0.2c-1.4,0-2.5-0.3-3.2-0.8s-1.3-1.2-1.6-2.1c-0.4-0.8-0.6-1.8-0.6-2.9
				c-0.1-1.1-0.1-2.1-0.1-3.2V29.4h10.6V23H254V12.2h-7.4v10.9h-7.4l-2.8,6.4h10.2v20.3c0,1.6,0.1,3.2,0.2,4.7
				c0.1,1.6,0.6,3,1.3,4.2c0.7,1.3,1.9,2.3,3.4,3.1c1.6,0.8,3.8,1.2,6.6,1.2c0.8,0,1.8-0.1,3.2-0.3c1.4-0.2,2.5-0.5,3.4-1V55
				C264,55.4,263.1,55.7,262.2,55.8z"/>
		</g>
		<g>
			<path class="st0" d="M450.8,55.8c-0.9,0.2-1.8,0.2-2.7,0.2c-1.4,0-2.5-0.3-3.2-0.8s-1.3-1.2-1.6-2.1c-0.4-0.8-0.6-1.8-0.6-2.9
				c-0.1-1.1-0.1-2.1-0.1-3.2V29.4h10.6V23h-10.6V12.2h-7.4v10.9h-7.4l-2.8,6.4h10.2v20.3c0,1.6,0.1,3.2,0.2,4.7
				c0.1,1.6,0.6,3,1.3,4.2c0.7,1.3,1.9,2.3,3.4,3.1c1.6,0.8,3.8,1.2,6.6,1.2c0.8,0,1.8-0.1,3.2-0.3c1.4-0.2,2.5-0.5,3.4-1V55
				C452.5,55.4,451.7,55.7,450.8,55.8z"/>
		</g>
	</g>
	<g>
		<path class="st0" d="M9.3,37.5c0,0,2.6-3.7,6.1-3.8c5.4-0.1,9.8,9.6,10.5,11c6-13.4,15.9-24.7,23.9-32.3H0.5
			c0,4.6,0.1,51.5,0.1,55.3c0,3-0.4,5.2-0.6,6.2c2.2-0.3,10.5-1.8,18.9-4.8c15-5.4,20.9-11.1,20.9-11.2l0.4-0.4l0.2,0.5
			c0,0,1.9,4.2,3.7,6.4c2.1,2.4,3.2,2.7,3.8,2.5c0.8-0.3,1.4-1.6,1.6-3.9c0.2-2.2,0.4-7.3,0.4-13.4c0-11,0-25.6,0-32.9
			C35.5,34.5,24.8,61.3,24.8,61.3S17.7,37.3,9.3,37.5z"/>
	</g>
</g>
</svg>
